<?xml version="1.0" encoding="UTF-8" standalone="no"?>
<svg
   width="14"
   height="14"
   id="svg2"
   sodipodi:version="0.32"
   inkscape:version="1.0 (4035a4f, 2020-05-01)"
   version="1.0"
   sodipodi:docname="blender_icons.svg"
   inkscape:output_extension="org.inkscape.output.svg.inkscape"
   style="display:inline;enable-background:new"
   inkscape:export-filename="blender_icons.png"
   inkscape:export-xdpi="96"
   inkscape:export-ydpi="96"
   xmlns:inkscape="http://www.inkscape.org/namespaces/inkscape"
   xmlns:sodipodi="http://sodipodi.sourceforge.net/DTD/sodipodi-0.dtd"
   xmlns="http://www.w3.org/2000/svg"
   xmlns:svg="http://www.w3.org/2000/svg"
   xmlns:rdf="http://www.w3.org/1999/02/22-rdf-syntax-ns#"
   xmlns:cc="http://creativecommons.org/ns#"
   xmlns:dc="http://purl.org/dc/elements/1.1/">
  <metadata
     id="metadata34337">
    <rdf:RDF>
      <cc:Work
         rdf:about="">
        <dc:format>image/svg+xml</dc:format>
        <dc:type
           rdf:resource="http://purl.org/dc/dcmitype/StillImage" />
        <dc:title />
      </cc:Work>
    </rdf:RDF>
  </metadata>
  <sodipodi:namedview
     inkscape:pagecheckerboard="true"
     inkscape:document-rotation="0"
     pagecolor="#808080"
     bordercolor="#666666"
     borderopacity="1"
     objecttolerance="10"
     gridtolerance="10"
     guidetolerance="10"
     inkscape:pageopacity="0"
     inkscape:pageshadow="2"
     inkscape:window-width="1792"
     inkscape:window-height="968"
     id="namedview34335"
     showgrid="false"
     inkscape:zoom="0.815521"
     inkscape:cx="60.911776"
     inkscape:cy="331.5525"
     inkscape:window-x="-1"
     inkscape:window-y="25"
     inkscape:window-maximized="0"
     inkscape:current-layer="layer2"
     inkscape:showpageshadow="2"
     inkscape:deskcolor="#808080" />
  <defs
     id="defs4" />
  <g
     inkscape:groupmode="layer"
     id="layer8"
     inkscape:label="2.81"
     style="display:inline"
     transform="translate(-27,-410)">
    <path
       inkscape:connector-curvature="0"
       id="path17434"
       d="m 27.5,410 a 0.50005,0.50005 0 0 0 -0.5,0.5 v 3 a 0.50005,0.50005 0 0 0 0.5,0.5 h 0.949219 L 32,420.62695 V 423.5 a 0.50005,0.50005 0 0 0 0.5,0.5 h 3 a 0.50005,0.50005 0 0 0 0.5,-0.5 v -2.87305 L 39.550781,414 H 40.5 a 0.50005,0.50005 0 0 0 0.5,-0.5 v -3 A 0.50005,0.50005 0 0 0 40.5,410 h -3 a 0.50005,0.50005 0 0 0 -0.5,0.5 v 0.5 h -6 v -0.5 A 0.50005,0.50005 0 0 0 30.5,410 Z m 0.5,1 h 2 v 2 h -2 z m 10,0 h 2 v 2 h -2 z m -7,1 h 6 v 1.5 a 0.50005,0.50005 0 0 0 0.5,0.5 h 0.914062 l -3.214843,6 h -2.398438 l -3.214843,-6 H 30.5 a 0.50005,0.50005 0 0 0 0.5,-0.5 z m 2,9 h 2 v 2 h -2 z"
       style="color:#000000;font-style:normal;font-variant:normal;font-weight:normal;font-stretch:normal;font-size:medium;line-height:normal;font-family:sans-serif;font-variant-ligatures:normal;font-variant-position:normal;font-variant-caps:normal;font-variant-numeric:normal;font-variant-alternates:normal;font-feature-settings:normal;text-indent:0;text-align:start;text-decoration:none;text-decoration-line:none;text-decoration-style:solid;text-decoration-color:#000000;letter-spacing:normal;word-spacing:normal;text-transform:none;writing-mode:lr-tb;direction:ltr;text-orientation:mixed;dominant-baseline:auto;baseline-shift:baseline;text-anchor:start;white-space:normal;shape-padding:0;clip-rule:nonzero;display:inline;overflow:visible;visibility:visible;opacity:1;isolation:auto;mix-blend-mode:normal;color-interpolation:sRGB;color-interpolation-filters:linearRGB;solid-color:#000000;solid-opacity:1;vector-effect:none;fill:#ffffff;fill-opacity:1;fill-rule:evenodd;stroke:none;stroke-width:1;stroke-linecap:round;stroke-linejoin:round;stroke-miterlimit:4;stroke-dasharray:none;stroke-dashoffset:0;stroke-opacity:1;marker:none;color-rendering:auto;image-rendering:auto;shape-rendering:auto;text-rendering:auto;enable-background:accumulate"
       inkscape:export-filename="..\Desktop\anomaly-modding-book\src\blender\blender-images\object-data-properties-logo.svg"
       inkscape:export-xdpi="96"
       inkscape:export-ydpi="96" />
  </g>
</svg>
