<?xml version="1.0" encoding="UTF-8" standalone="no"?>
<svg
   width="14.048859"
   height="14.048706"
   id="svg2"
   sodipodi:version="0.32"
   inkscape:version="1.0 (4035a4f, 2020-05-01)"
   version="1.0"
   sodipodi:docname="blender_icons.svg"
   inkscape:output_extension="org.inkscape.output.svg.inkscape"
   style="display:inline;enable-background:new"
   inkscape:export-filename="blender_icons.png"
   inkscape:export-xdpi="96"
   inkscape:export-ydpi="96"
   xmlns:inkscape="http://www.inkscape.org/namespaces/inkscape"
   xmlns:sodipodi="http://sodipodi.sourceforge.net/DTD/sodipodi-0.dtd"
   xmlns="http://www.w3.org/2000/svg"
   xmlns:svg="http://www.w3.org/2000/svg"
   xmlns:rdf="http://www.w3.org/1999/02/22-rdf-syntax-ns#"
   xmlns:cc="http://creativecommons.org/ns#"
   xmlns:dc="http://purl.org/dc/elements/1.1/">
  <metadata
     id="metadata34337">
    <rdf:RDF>
      <cc:Work
         rdf:about="">
        <dc:format>image/svg+xml</dc:format>
        <dc:type
           rdf:resource="http://purl.org/dc/dcmitype/StillImage" />
        <dc:title />
      </cc:Work>
    </rdf:RDF>
  </metadata>
  <sodipodi:namedview
     inkscape:pagecheckerboard="true"
     inkscape:document-rotation="0"
     pagecolor="#808080"
     bordercolor="#666666"
     borderopacity="1"
     objecttolerance="10"
     gridtolerance="10"
     guidetolerance="10"
     inkscape:pageopacity="0"
     inkscape:pageshadow="2"
     inkscape:window-width="1792"
     inkscape:window-height="968"
     id="namedview34335"
     showgrid="false"
     inkscape:zoom="0.815521"
     inkscape:cx="60.911776"
     inkscape:cy="331.5525"
     inkscape:window-x="-1"
     inkscape:window-y="25"
     inkscape:window-maximized="0"
     inkscape:current-layer="layer2"
     inkscape:showpageshadow="2"
     inkscape:deskcolor="#808080" />
  <defs
     id="defs4" />
  <g
     inkscape:groupmode="layer"
     id="layer8"
     inkscape:label="2.81"
     style="display:inline"
     transform="translate(-194.99286,-598.99945)">
    <g
       transform="translate(62.999978,21.041695)"
       id="g11141"
       style="display:inline;opacity:1;fill:#ffffff;enable-background:new"
       inkscape:export-filename="blender_icons.png"
       inkscape:export-xdpi="96"
       inkscape:export-ydpi="96">
      <g
         transform="translate(-126)"
         id="g11139"
         style="fill:#ffffff">
        <path
           style="color:#000000;font-style:normal;font-variant:normal;font-weight:normal;font-stretch:normal;font-size:medium;line-height:normal;font-family:sans-serif;font-variant-ligatures:normal;font-variant-position:normal;font-variant-caps:normal;font-variant-numeric:normal;font-variant-alternates:normal;font-feature-settings:normal;text-indent:0;text-align:start;text-decoration:none;text-decoration-line:none;text-decoration-style:solid;text-decoration-color:#000000;letter-spacing:normal;word-spacing:normal;text-transform:none;writing-mode:lr-tb;direction:ltr;text-orientation:mixed;dominant-baseline:auto;baseline-shift:baseline;text-anchor:start;white-space:normal;shape-padding:0;clip-rule:nonzero;display:inline;overflow:visible;visibility:visible;opacity:1;isolation:auto;mix-blend-mode:normal;color-interpolation:sRGB;color-interpolation-filters:linearRGB;solid-color:#000000;solid-opacity:1;vector-effect:none;fill:#ffffff;fill-opacity:1;fill-rule:nonzero;stroke:none;stroke-width:1;stroke-linecap:round;stroke-linejoin:round;stroke-miterlimit:4;stroke-dasharray:none;stroke-dashoffset:0;stroke-opacity:1;color-rendering:auto;image-rendering:auto;shape-rendering:auto;text-rendering:auto;enable-background:accumulate"
           d="m 206.72656,599 c -0.19328,-0.004 -0.38654,0.0132 -0.57422,0.0508 -0.75071,0.15014 -1.44693,0.5778 -2.00586,1.13672 l -2.14453,2.10742 -1.14843,-1.14844 a 0.50005,0.50005 0 0 0 -0.35938,-0.15234 0.50005,0.50005 0 0 0 -0.34766,0.85938 l 1.64649,1.64648 -4.64844,4.68945 A 0.50005,0.50005 0 0 0 197,608.54102 v 0.79296 l -1.85352,1.85352 a 0.50005,0.50005 0 1 0 0.70704,0.70703 l 2,-2 A 0.50005,0.50005 0 0 0 198,609.54102 v -0.79493 l 4.50195,-4.53711 1.29297,1.29297 -4.5039,4.53907 H 198.5 a 0.50005,0.50005 0 0 0 -0.35352,0.14648 l -2,2 a 0.50005,0.50005 0 1 0 0.70704,0.70703 l 1.85351,-1.85351 H 199.5 a 0.50005,0.50005 0 0 0 0.35547,-0.14844 l 4.64648,-4.6836 1.64453,1.64454 a 0.50005,0.50005 0 1 0 0.70704,-0.70704 l -1.14258,-1.14257 2.13867,-2.10547 0.004,-0.004 c 0.55892,-0.55893 0.98657,-1.25515 1.13671,-2.00586 0.15015,-0.75072 -0.0189,-1.58331 -0.63671,-2.20117 -0.4634,-0.46339 -1.04712,-0.67435 -1.62696,-0.6875 z"
           transform="translate(63.000022,-21.041695)"
           id="path11133"
           inkscape:connector-curvature="0" />
      </g>
    </g>
  </g>
</svg>
