<?xml version="1.0" encoding="UTF-8" standalone="no"?>
<svg
   width="602"
   height="640"
   id="svg2"
   version="1.0"
   style="display:inline;enable-background:new"
   xmlns="http://www.w3.org/2000/svg"
   xmlns:svg="http://www.w3.org/2000/svg"
   xmlns:rdf="http://www.w3.org/1999/02/22-rdf-syntax-ns#"
   xmlns:cc="http://creativecommons.org/ns#"
   xmlns:dc="http://purl.org/dc/elements/1.1/">
  <metadata
     id="metadata34337">
    <rdf:RDF>
      <cc:Work
         rdf:about="">
        <dc:format>image/svg+xml</dc:format>
        <dc:type
           rdf:resource="http://purl.org/dc/dcmitype/StillImage" />
      </cc:Work>
    </rdf:RDF>
  </metadata>
  <defs
     id="defs4" />
  <g
     id="layer1"
     style="display:inline">
    <path
       style="display:inline;enable-background:new;color:#000000;font-style:normal;font-variant:normal;font-weight:normal;font-stretch:normal;font-size:medium;line-height:normal;font-family:sans-serif;font-variant-ligatures:normal;font-variant-position:normal;font-variant-caps:normal;font-variant-numeric:normal;font-variant-alternates:normal;font-feature-settings:normal;text-indent:0;text-align:start;text-decoration:none;text-decoration-line:none;text-decoration-style:solid;text-decoration-color:#000000;letter-spacing:normal;word-spacing:normal;text-transform:none;writing-mode:lr-tb;direction:ltr;text-orientation:mixed;dominant-baseline:auto;baseline-shift:baseline;text-anchor:start;white-space:normal;shape-padding:0;clip-rule:nonzero;overflow:visible;visibility:visible;isolation:auto;mix-blend-mode:normal;color-interpolation:sRGB;color-interpolation-filters:linearRGB;solid-color:#000000;solid-opacity:1;vector-effect:none;fill:#ffffff;fill-opacity:1;fill-rule:nonzero;stroke:none;stroke-width:1;stroke-linecap:round;stroke-linejoin:round;stroke-miterlimit:4;stroke-dasharray:none;stroke-dashoffset:0;stroke-opacity:1;marker:none;paint-order:fill markers stroke;color-rendering:auto;image-rendering:auto;shape-rendering:auto;text-rendering:auto"
       d="m 431.65226,276.27588 -0.96875,0.0156 c -0.0189,2.6e-4 -0.0378,0.002 -0.0566,0.004 -2.58289,0.33067 -4.57988,2.60038 -4.45117,5.21484 0.0288,0.58487 0.23179,1.09854 0.44141,1.5957 l -3.78516,3.78516 c -0.33708,0.30742 -0.60091,0.7293 -0.64063,1.23047 -0.0397,0.50117 0.17261,1.03979 0.625,1.49219 0.45357,0.45356 0.99596,0.65829 1.49219,0.61328 0.49624,-0.045 0.906,-0.30379 1.21485,-0.61328 l 3.80664,-3.80664 c 0.52791,0.22561 1.0693,0.4331 1.69336,0.45117 2.60313,0.0754 4.83493,-1.87377 5.11328,-4.46289 10e-4,-0.0136 0.002,-0.0273 0.002,-0.041 l 0.0215,-0.9668 c 0.0105,-0.45102 -0.53451,-0.68424 -0.85351,-0.36523 l -2.84386,2.83781 h -1.58594 l -1.70703,-1.70703 v -1.58594 l 2.84375,-2.83789 c 0.31756,-0.31766 0.0878,-0.86042 -0.36133,-0.85352 z"
       id="path18095-0" />
    <path
       style="color:#000000;font-style:normal;font-variant:normal;font-weight:normal;font-stretch:normal;font-size:medium;line-height:normal;font-family:sans-serif;font-variant-ligatures:normal;font-variant-position:normal;font-variant-caps:normal;font-variant-numeric:normal;font-variant-alternates:normal;font-feature-settings:normal;text-indent:0;text-align:start;text-decoration:none;text-decoration-line:none;text-decoration-style:solid;text-decoration-color:#000000;letter-spacing:normal;word-spacing:normal;text-transform:none;writing-mode:lr-tb;direction:ltr;text-orientation:mixed;dominant-baseline:auto;baseline-shift:baseline;text-anchor:start;white-space:normal;shape-padding:0;clip-rule:nonzero;display:none;overflow:visible;visibility:visible;opacity:1;isolation:auto;mix-blend-mode:normal;color-interpolation:sRGB;color-interpolation-filters:linearRGB;solid-color:#000000;solid-opacity:1;vector-effect:none;fill:#ffffff;fill-opacity:1;fill-rule:nonzero;stroke:none;stroke-width:1.33333;stroke-linecap:round;stroke-linejoin:miter;stroke-miterlimit:4;stroke-dasharray:none;stroke-dashoffset:0;stroke-opacity:1;color-rendering:auto;image-rendering:auto;shape-rendering:auto;text-rendering:auto;enable-background:accumulate"
       d="m 300.99023,247.67578 a 0.666995,0.666995 0 1 0 0,1.33399 h 10.66602 a 0.666995,0.666995 0 1 0 0,-1.33399 z"
       id="path10309-7-7"
       transform="matrix(-0.75,0,0,0.75,732.58262,163.81306)" />
    <path
       style="color:#000000;font-style:normal;font-variant:normal;font-weight:normal;font-stretch:normal;font-size:medium;line-height:normal;font-family:sans-serif;font-variant-ligatures:normal;font-variant-position:normal;font-variant-caps:normal;font-variant-numeric:normal;font-variant-alternates:normal;font-feature-settings:normal;text-indent:0;text-align:start;text-decoration:none;text-decoration-line:none;text-decoration-style:solid;text-decoration-color:#000000;letter-spacing:normal;word-spacing:normal;text-transform:none;writing-mode:lr-tb;direction:ltr;text-orientation:mixed;dominant-baseline:auto;baseline-shift:baseline;text-anchor:start;white-space:normal;shape-padding:0;clip-rule:nonzero;display:none;overflow:visible;visibility:visible;opacity:1;isolation:auto;mix-blend-mode:normal;color-interpolation:sRGB;color-interpolation-filters:linearRGB;solid-color:#000000;solid-opacity:1;vector-effect:none;fill:#ffffff;fill-opacity:1;fill-rule:nonzero;stroke:none;stroke-width:1;stroke-linecap:round;stroke-linejoin:miter;stroke-miterlimit:4;stroke-dasharray:none;stroke-dashoffset:0;stroke-opacity:1;color-rendering:auto;image-rendering:auto;shape-rendering:auto;text-rendering:auto;enable-background:accumulate"
       d="m 118.51367,601 a 0.50005001,0.50005001 0 0 0 -0.50586,0.50586 v 3.50195 h -3.50195 a 0.50005001,0.50005001 0 1 0 0,0.99805 h 3.50195 v 3.50195 a 0.50005001,0.50005001 0 1 0 0.99805,0 v -3.50195 h 3.50195 a 0.50005001,0.50005001 0 1 0 0,-0.99805 h -3.50195 v -3.50195 A 0.50005001,0.50005001 0 0 0 118.51367,601 Z"
       transform="translate(363.33262,-255.43694)"
       id="path7083-5-6" />
  </g>
</svg>
