<?xml version="1.0" encoding="UTF-8" standalone="no"?>
<svg
   width="14.018127"
   height="14.023621"
   id="svg2"
   sodipodi:version="0.32"
   inkscape:version="1.0 (4035a4f, 2020-05-01)"
   version="1.0"
   sodipodi:docname="blender_icons.svg"
   inkscape:output_extension="org.inkscape.output.svg.inkscape"
   style="display:inline;enable-background:new"
   inkscape:export-filename="blender_icons.png"
   inkscape:export-xdpi="96"
   inkscape:export-ydpi="96"
   xmlns:inkscape="http://www.inkscape.org/namespaces/inkscape"
   xmlns:sodipodi="http://sodipodi.sourceforge.net/DTD/sodipodi-0.dtd"
   xmlns="http://www.w3.org/2000/svg"
   xmlns:svg="http://www.w3.org/2000/svg"
   xmlns:rdf="http://www.w3.org/1999/02/22-rdf-syntax-ns#"
   xmlns:cc="http://creativecommons.org/ns#"
   xmlns:dc="http://purl.org/dc/elements/1.1/">
  <metadata
     id="metadata34337">
    <rdf:RDF>
      <cc:Work
         rdf:about="">
        <dc:format>image/svg+xml</dc:format>
        <dc:type
           rdf:resource="http://purl.org/dc/dcmitype/StillImage" />
        <dc:title />
      </cc:Work>
    </rdf:RDF>
  </metadata>
  <sodipodi:namedview
     inkscape:pagecheckerboard="true"
     inkscape:document-rotation="0"
     pagecolor="#808080"
     bordercolor="#666666"
     borderopacity="1"
     objecttolerance="10"
     gridtolerance="10"
     guidetolerance="10"
     inkscape:pageopacity="0"
     inkscape:pageshadow="2"
     inkscape:window-width="1792"
     inkscape:window-height="968"
     id="namedview34335"
     showgrid="false"
     inkscape:zoom="0.815521"
     inkscape:cx="60.911776"
     inkscape:cy="331.5525"
     inkscape:window-x="-1"
     inkscape:window-y="25"
     inkscape:window-maximized="0"
     inkscape:current-layer="layer2"
     inkscape:showpageshadow="2"
     inkscape:deskcolor="#808080" />
  <defs
     id="defs4" />
  <g
     inkscape:groupmode="layer"
     id="layer8"
     inkscape:label="2.81"
     style="display:inline"
     transform="translate(-383.98901,-263.00781)">
    <path
       inkscape:connector-curvature="0"
       id="path10449"
       d="m 391.5,263.00781 c -0.82054,0 -1.49609,0.67557 -1.49609,1.4961 0,0.82054 0.67555,1.49609 1.49609,1.49609 0.82053,0 1.49609,-0.67555 1.49609,-1.49609 0,-0.82053 -0.67556,-1.4961 -1.49609,-1.4961 z M 397,264 c -0.71373,0 -1.37556,0.3819 -1.73242,1 -0.19053,0.33001 -0.2484,0.68266 -0.25586,0.99609 v 0.0117 h -1.54297 C 393.0093,266.6044 392.2975,267 391.5,267 c -0.79751,0 -1.50931,-0.3956 -1.96875,-0.99219 h -0.0195 -5.01563 c -0.67616,-0.01 -0.67616,1.00956 0,1 h 5.01563 0.49805 l -0.0137,3.28711 c -1.65939,1.40974 -3.24134,2.62162 -3.98828,6.10742 -0.17787,0.67446 0.8602,0.89868 0.97657,0.21094 0.67528,-3.15139 1.9234,-4.08819 3.51757,-5.42773 1.58398,1.34059 2.83152,2.27746 3.51953,5.42968 0.13318,0.66658 1.13544,0.44609 0.97657,-0.21484 -0.76273,-3.49457 -2.35105,-4.70351 -4.00196,-6.11719 l 0.0137,-3.27539 h 2.21679 1.78516 v 0.004 c 0.007,0.31344 0.0653,0.66608 0.25586,0.99609 0.35686,0.61811 1.01869,1 1.73242,1 h 0.5 c 0.67616,0.01 0.67616,-1.00956 0,-1 H 397 c -0.35807,0 -0.6862,-0.1899 -0.86523,-0.5 -0.0738,-0.12789 -0.11835,-0.32209 -0.12305,-0.51953 v -0.96875 c 0.005,-0.19744 0.0492,-0.39164 0.12305,-0.51953 0.17903,-0.3101 0.50716,-0.5 0.86523,-0.5 h 0.5 c 0.67616,0.01 0.67616,-1.00956 0,-1 z"
       style="color:#000000;font-style:normal;font-variant:normal;font-weight:normal;font-stretch:normal;font-size:medium;line-height:normal;font-family:sans-serif;font-variant-ligatures:normal;font-variant-position:normal;font-variant-caps:normal;font-variant-numeric:normal;font-variant-alternates:normal;font-feature-settings:normal;text-indent:0;text-align:start;text-decoration:none;text-decoration-line:none;text-decoration-style:solid;text-decoration-color:#000000;letter-spacing:normal;word-spacing:normal;text-transform:none;writing-mode:lr-tb;direction:ltr;text-orientation:mixed;dominant-baseline:auto;baseline-shift:baseline;text-anchor:start;white-space:normal;shape-padding:0;clip-rule:nonzero;display:inline;overflow:visible;visibility:visible;opacity:1;isolation:auto;mix-blend-mode:normal;color-interpolation:sRGB;color-interpolation-filters:linearRGB;solid-color:#000000;solid-opacity:1;vector-effect:none;fill:#ffffff;fill-opacity:1;fill-rule:nonzero;stroke:none;stroke-width:1;stroke-linecap:round;stroke-linejoin:round;stroke-miterlimit:4;stroke-dasharray:none;stroke-dashoffset:0;stroke-opacity:1;marker:none;paint-order:fill markers stroke;color-rendering:auto;image-rendering:auto;shape-rendering:auto;text-rendering:auto;enable-background:accumulate"
       inkscape:export-filename="..\Desktop\anomaly-modding-book\src\blender\blender-images\armature-modifier-logo.svg"
       inkscape:export-xdpi="96"
       inkscape:export-ydpi="96" />
  </g>
</svg>
