<?xml version="1.0" encoding="UTF-8"?>
<!-- Uploaded to: SVG Repo, www.svgrepo.com, Generator: SVG Repo Mixer Tools -->
<svg width="800px" height="800px" viewBox="0 0 24 24" version="1.1" xmlns="http://www.w3.org/2000/svg" xmlns:xlink="http://www.w3.org/1999/xlink">
    <title>Sound</title>
    <g id="Page-1" stroke="none" stroke-width="1" fill="none" fill-rule="evenodd">
        <g id="Sound">
            <rect id="Rectangle" fill-rule="nonzero" x="0" y="0" width="24" height="24">

</rect>
            <path d="M21,16 L21,6.54138 C21,4.68756 19.3354,3.27743 17.5068,3.5822 L11.5068,4.5822 C10.0602,4.82329 9,6.07486 9,7.54138 L9,18" id="Path" stroke="#0C0310" stroke-width="2" stroke-linecap="round">

</path>
            <path d="M6.5,21 C7.88071,21 9,19.8807 9,18.5 L9,16 L6.5,16 C5.11929,16 4,17.1193 4,18.5 C4,19.8807 5.11929,21 6.5,21 Z" id="Path" stroke="#0C0310" stroke-width="2" stroke-linecap="round">

</path>
            <path d="M18.5,19 C19.8807,19 21,17.8807 21,16.5 L21,14 L18.5,14 C17.1193,14 16,15.1193 16,16.5 C16,17.8807 17.1193,19 18.5,19 Z" id="Path" stroke="#0C0310" stroke-width="2" stroke-linecap="round">

</path>
        </g>
    </g>
</svg>