<?xml version="1.0" encoding="utf-8"?>
<svg xmlns="http://www.w3.org/2000/svg" viewBox="0 0 500 500" xmlns:bx="https://boxy-svg.com" width="500px" height="500px"><defs/><rect x="77.111" y="225.52" width="75.275" height="48.96" style="fill: rgb(216, 216, 216); stroke: rgb(0, 0, 0);"/><rect x="231.334" y="70.074" width="37.332" height="359.853" style="fill: rgb(216, 216, 216); stroke: rgb(0, 0, 0);"/><ellipse style="fill: rgb(216, 216, 216); stroke: rgb(0, 0, 0);" cx="424.219" cy="250.287" rx="61.517" ry="61.517"/><text style="fill: rgb(216, 216, 216); font-family: Arial, sans-serif; font-size: 28px; stroke: rgb(0, 0, 0); white-space: pre;" x="157.664" y="46.512">SOM Occluder</text><text style="fill: rgb(216, 216, 216); font-family: Arial, sans-serif; font-size: 28px; paint-order: fill; stroke: rgb(0, 0, 0); white-space: pre;" x="81.841" y="216.567">Actor</text><path d="M -353.921 -255 H -329.136 L -329.136 -270 L -289.136 -250 L -329.136 -230 L -329.136 -245 H -353.921 V -255 Z" style="fill: rgb(216, 216, 216); stroke: rgb(0, 0, 0);" transform="matrix(-1, 0, 0, -1, 0, 0)"/><path d="M -380.907 -320.051 H -247.221 L -247.221 -335.051 L -207.221 -315.051 L -247.221 -295.051 L -247.221 -310.051 H -380.907 V -320.051 Z" style="fill: rgb(216, 216, 216); stroke: rgb(0, 0, 0); stroke-width: 1;" transform="matrix(-0.576553, 0.81706, -0.81706, -0.576553, -103.994812, 421.169434)"/><path d="M -380.907 -320.051 H -242.828 L -242.828 -335.051 L -202.828 -315.051 L -242.828 -295.051 L -242.828 -310.051 H -380.907 V -320.051 Z" style="fill: rgb(216, 216, 216); stroke: rgb(0, 0, 0); stroke-width: 1;" transform="matrix(-0.563937, -0.825818, 0.825818, -0.563937, 417.542358, -282.467621)"/><text style="fill: rgb(216, 216, 216); font-family: Arial, sans-serif; font-size: 21.4px; paint-order: fill; stroke: rgb(0, 0, 0); white-space: pre;" x="360.317" y="170.227">Sound Source</text><path d="M 262.761 225.109 H 272.718 V 245.022 H 292.631 V 254.979 H 272.718 V 274.892 H 262.761 V 254.979 H 242.848 V 245.022 H 262.761 Z" style="fill: rgb(216, 216, 216); stroke: rgb(0, 0, 0); transform-box: fill-box; transform-origin: 50% 50%;" transform="matrix(0.707107, 0.707107, -0.707107, 0.707107, 0.000029, -0.000198)"/></svg>