<?xml version="1.0" encoding="UTF-8" standalone="no"?>
<svg
   inkscape:export-ydpi="96"
   inkscape:export-xdpi="96"
   inkscape:export-filename="blender_icons.png"
   style="display:inline;enable-background:new"
   inkscape:output_extension="org.inkscape.output.svg.inkscape"
   sodipodi:docname="blender_icons.svg"
   version="1.0"
   inkscape:version="1.2 (dc2aeda, 2022-05-15)"
   sodipodi:version="0.32"
   id="svg2"
   height="14"
   width="14"
   xmlns:inkscape="http://www.inkscape.org/namespaces/inkscape"
   xmlns:sodipodi="http://sodipodi.sourceforge.net/DTD/sodipodi-0.dtd"
   xmlns="http://www.w3.org/2000/svg"
   xmlns:svg="http://www.w3.org/2000/svg"
   xmlns:rdf="http://www.w3.org/1999/02/22-rdf-syntax-ns#"
   xmlns:cc="http://creativecommons.org/ns#"
   xmlns:dc="http://purl.org/dc/elements/1.1/">
  <metadata
     id="metadata34337">
    <rdf:RDF>
      <cc:Work
         rdf:about="">
        <dc:format>image/svg+xml</dc:format>
        <dc:type
           rdf:resource="http://purl.org/dc/dcmitype/StillImage" />
        <dc:title />
      </cc:Work>
    </rdf:RDF>
  </metadata>
  <sodipodi:namedview
     inkscape:pagecheckerboard="true"
     inkscape:document-rotation="0"
     pagecolor="#808080"
     bordercolor="#666666"
     borderopacity="1"
     objecttolerance="10"
     gridtolerance="10"
     guidetolerance="10"
     inkscape:pageopacity="0"
     inkscape:pageshadow="2"
     inkscape:window-width="1728"
     inkscape:window-height="1051"
     id="namedview34335"
     showgrid="false"
     inkscape:zoom="1.2495612"
     inkscape:cx="196.46897"
     inkscape:cy="320.51252"
     inkscape:window-x="767"
     inkscape:window-y="120"
     inkscape:window-maximized="0"
     inkscape:current-layer="layer8"
     inkscape:showpageshadow="2"
     inkscape:deskcolor="#808080" />
  <defs
     id="defs4" />
  <g
     inkscape:groupmode="layer"
     id="layer8"
     inkscape:label="icons"
     style="display:inline"
     transform="translate(-279,-536)">
    <g
       style="display:inline;fill:#ffffff;enable-background:new"
       id="g13226"
       transform="translate(-189,84)"
       inkscape:label="Z-14"
       inkscape:export-filename="..\Desktop\g13226.svg"
       inkscape:export-xdpi="96"
       inkscape:export-ydpi="96">
      <path
         style="color:#000000;display:inline;overflow:visible;visibility:visible;opacity:1;fill:#ffffff;fill-opacity:1;fill-rule:nonzero;stroke:none;marker:none;enable-background:accumulate"
         d="m 285,536 -0.15625,1.90625 c -0.6231,0.14227 -1.07677,0.25145 -1.59375,0.59375 l -1.75,-1.5 -1.5,1.5 1.5,1.75 c -0.34229,0.51699 -0.45148,0.97065 -0.59375,1.59375 L 279,542 v 1 1 l 1.90625,0.15625 c 0.14227,0.6231 0.25145,1.07677 0.59375,1.59375 l -1.5,1.75 1.5,1.5 1.75,-1.5 c 0.51699,0.34229 0.97065,0.45148 1.59375,0.59375 L 285,550 h 1 1 l 0.15625,-1.90625 c 0.6231,-0.14227 1.07677,-0.25145 1.59375,-0.59375 l 1.75,1.5 1.5,-1.5 -1.5,-1.75 c 0.34229,-0.51699 0.45148,-0.97065 0.59375,-1.59375 L 293,544 v -1 -1 l -1.90625,-0.15625 C 290.95148,541.22065 290.8423,540.76698 290.5,540.25 l 1.5,-1.75 -1.5,-1.5 -1.75,1.5 c -0.51699,-0.34229 -0.97065,-0.45148 -1.59375,-0.59375 L 287,536 h -1 z m 1,5 c 1.11641,0 2,0.88359 2,2 0,1.11641 -0.88359,2 -2,2 -1.11641,0 -2,-0.88359 -2,-2 0,-1.11641 0.88359,-2 2,-2 z"
         transform="translate(189,-84)"
         id="path52982-3"
         inkscape:connector-curvature="0" />
    </g>
  </g>
</svg>
