<?xml version="1.0" encoding="UTF-8" standalone="no"?>
<svg
   inkscape:export-ydpi="96"
   inkscape:export-xdpi="96"
   inkscape:export-filename="blender_icons.png"
   style="display:inline;enable-background:new"
   inkscape:output_extension="org.inkscape.output.svg.inkscape"
   sodipodi:docname="blender_icons.svg"
   version="1.0"
   inkscape:version="1.2 (dc2aeda, 2022-05-15)"
   sodipodi:version="0.32"
   id="svg2"
   height="13.996521"
   width="13.987457"
   xmlns:inkscape="http://www.inkscape.org/namespaces/inkscape"
   xmlns:sodipodi="http://sodipodi.sourceforge.net/DTD/sodipodi-0.dtd"
   xmlns="http://www.w3.org/2000/svg"
   xmlns:svg="http://www.w3.org/2000/svg"
   xmlns:rdf="http://www.w3.org/1999/02/22-rdf-syntax-ns#"
   xmlns:cc="http://creativecommons.org/ns#"
   xmlns:dc="http://purl.org/dc/elements/1.1/">
  <metadata
     id="metadata34337">
    <rdf:RDF>
      <cc:Work
         rdf:about="">
        <dc:format>image/svg+xml</dc:format>
        <dc:type
           rdf:resource="http://purl.org/dc/dcmitype/StillImage" />
        <dc:title />
      </cc:Work>
    </rdf:RDF>
  </metadata>
  <sodipodi:namedview
     inkscape:pagecheckerboard="true"
     inkscape:document-rotation="0"
     pagecolor="#808080"
     bordercolor="#666666"
     borderopacity="1"
     objecttolerance="10"
     gridtolerance="10"
     guidetolerance="10"
     inkscape:pageopacity="0"
     inkscape:pageshadow="2"
     inkscape:window-width="1728"
     inkscape:window-height="1051"
     id="namedview34335"
     showgrid="false"
     inkscape:zoom="1.2495612"
     inkscape:cx="196.46897"
     inkscape:cy="320.51252"
     inkscape:window-x="767"
     inkscape:window-y="120"
     inkscape:window-maximized="0"
     inkscape:current-layer="layer8"
     inkscape:showpageshadow="2"
     inkscape:deskcolor="#808080" />
  <defs
     id="defs4" />
  <g
     inkscape:groupmode="layer"
     id="layer8"
     inkscape:label="icons"
     style="display:inline"
     transform="translate(-405.01205,-494)">
    <g
       style="display:inline;fill:#ffffff;enable-background:new"
       id="g12222"
       transform="rotate(180,422.506,501)"
       inkscape:export-filename="..\Desktop\object-constraint-properties-icon.svg"
       inkscape:export-xdpi="96"
       inkscape:export-ydpi="96"
       inkscape:label="X-20">
      <g
         id="g23057"
         style="opacity:1;fill:#ffffff">
        <path
           style="color:#000000;font-style:normal;font-variant:normal;font-weight:normal;font-stretch:normal;font-size:medium;line-height:normal;font-family:sans-serif;font-variant-ligatures:normal;font-variant-position:normal;font-variant-caps:normal;font-variant-numeric:normal;font-variant-alternates:normal;font-feature-settings:normal;text-indent:0;text-align:start;text-decoration:none;text-decoration-line:none;text-decoration-style:solid;text-decoration-color:#000000;letter-spacing:normal;word-spacing:normal;text-transform:none;writing-mode:lr-tb;direction:ltr;text-orientation:mixed;dominant-baseline:auto;baseline-shift:baseline;text-anchor:start;white-space:normal;shape-padding:0;clip-rule:nonzero;display:inline;overflow:visible;visibility:visible;opacity:1;isolation:auto;mix-blend-mode:normal;color-interpolation:sRGB;color-interpolation-filters:linearRGB;solid-color:#000000;solid-opacity:1;vector-effect:none;fill:#ffffff;fill-opacity:1;fill-rule:nonzero;stroke:none;stroke-width:1;stroke-linecap:round;stroke-linejoin:round;stroke-miterlimit:4;stroke-dasharray:none;stroke-dashoffset:0;stroke-opacity:1;marker:none;color-rendering:auto;image-rendering:auto;shape-rendering:auto;text-rendering:auto;enable-background:accumulate"
           d="m 415.99805,494 c -0.46823,5.5e-4 -0.93866,0.108 -1.3711,0.32422 l -6.83789,3.39453 a 0.50005,0.50005 0 0 0 -0.0273,0.0137 c -2.00082,1.15513 -3.06722,3.4434 -2.66602,5.71875 0.40121,2.27536 2.18559,4.05973 4.46094,4.46094 0.56884,0.1003 1.13889,0.11012 1.69141,0.0352 1.65755,-0.22472 3.1599,-1.20077 4.02734,-2.70313 a 0.50005,0.50005 0 0 0 0.0156,-0.0293 l 3.38476,-6.84179 c 0.57659,-1.15316 0.3761,-2.57898 -0.54687,-3.50196 -0.57687,-0.57686 -1.35049,-0.872 -2.13086,-0.87109 z m 0.3125,1.02539 c 0.41467,0.0623 0.80824,0.24966 1.11133,0.55273 0.60613,0.60614 0.74722,1.57588 0.36132,2.34766 a 0.50005,0.50005 0 0 0 -0.002,0.002 l -3.375,6.82032 c -0.9493,1.63933 -2.81295,2.50814 -4.67578,2.17968 -1.86473,-0.3288 -3.32159,-1.78565 -3.65039,-3.65039 -0.3288,-1.86473 0.54196,-3.7311 2.18164,-4.67773 l 6.81055,-3.38086 a 0.50005,0.50005 0 0 0 0.002,0 c 0.38589,-0.19295 0.82165,-0.25567 1.23633,-0.19336 z m -0.29883,0.9707 c -0.54636,0 -1,0.45364 -1,1 0,0.54636 0.45364,1 1,1 0.54636,0 1,-0.45364 1,-1 0,-0.54636 -0.45364,-1 -1,-1 z m -5.5,3 c -1.92707,0 -3.5,1.57293 -3.5,3.5 0,1.92707 1.57293,3.5 3.5,3.5 1.92707,0 3.5,-1.57293 3.5,-3.5 0,-1.92707 -1.57293,-3.5 -3.5,-3.5 z m 0,1.97461 a 1.4874268,1.5 0 0 1 1.48828,1.5 1.4874268,1.5 0 0 1 -1.48828,1.5 1.4874268,1.5 0 0 1 -1.48828,-1.5 1.4874268,1.5 0 0 1 1.48828,-1.5 z"
           transform="rotate(180,422.506,501)"
           id="circle12201"
           inkscape:connector-curvature="0" />
      </g>
    </g>
  </g>
</svg>
