<?xml version="1.0" encoding="UTF-8" standalone="no"?>
<svg
   width="11.926819"
   height="9.6884785"
   viewBox="0 0 11.926819 9.6884785"
   version="1.1"
   preserveAspectRatio="xMidYMid"
   id="svg10"
   sodipodi:docname="blender-logo.svg"
   xmlns:inkscape="http://www.inkscape.org/namespaces/inkscape"
   xmlns:sodipodi="http://sodipodi.sourceforge.net/DTD/sodipodi-0.dtd"
   xmlns="http://www.w3.org/2000/svg"
   xmlns:svg="http://www.w3.org/2000/svg">
  <defs
     id="defs14" />
  <sodipodi:namedview
     id="namedview12"
     pagecolor="#ffffff"
     bordercolor="#000000"
     borderopacity="0.25"
     inkscape:showpageshadow="2"
     inkscape:pageopacity="0.0"
     inkscape:pagecheckerboard="0"
     inkscape:deskcolor="#d1d1d1"
     showgrid="false" />
  <g
     id="g8"
     transform="scale(0.04658914)"
     inkscape:export-filename="g8.svg"
     inkscape:export-xdpi="96"
     inkscape:export-ydpi="96"
     style="fill:#ffffff">
    <path
       d="m 133.16767,116.67618 c 0.47761,-8.52027 4.64988,-16.02676 10.94434,-21.347992 6.17281,-5.22661 14.48131,-8.421149 23.54678,-8.421149 9.05645,0 17.36496,3.194539 23.54227,8.421149 6.28995,5.321232 10.46223,12.827722 10.94434,21.338982 0.4776,8.75457 -3.04135,16.88736 -9.21415,22.91598 -6.29446,6.13225 -15.24729,9.98012 -25.27246,9.98012 -10.02518,0 -18.99602,-3.84787 -25.28598,-9.98012 -6.17731,-6.02862 -9.68725,-14.16141 -9.20514,-22.90697 z"
       fill="#265787"
       id="path4"
       style="fill:#ffffff" />
    <path
       d="m 78.410775,134.17918 c 0.0587,3.34136 1.124321,9.83443 2.722754,14.90516 3.359418,10.73298 9.057785,20.66223 16.986734,29.41297 8.136657,8.99457 18.156207,16.21913 29.729047,21.34856 12.16434,5.38681 25.34464,8.13214 39.03517,8.1097 13.66795,-0.0182 26.84825,-2.81771 39.01259,-8.24516 11.57284,-5.1791 21.58336,-12.43526 29.70647,-21.43435 7.92443,-8.78686 13.61377,-18.73417 16.98222,-29.46715 1.69325,-5.42293 2.76339,-10.92714 3.19235,-16.44941 0.41992,-5.44099 0.24382,-10.89102 -0.5283,-16.33652 -1.50813,-10.61107 -5.1791,-20.567408 -10.83232,-29.643255 -5.17007,-8.339845 -11.83472,-15.64116 -19.75915,-21.786547 l 0.0181,-0.01355 -79.97131,-61.4041993 c -0.0722,-0.054184 -0.13094,-0.1128837 -0.2077,-0.1625525 -5.24683,-4.0276892 -14.06982,-4.0141432 -19.84044,0.022577 -5.83382,4.0818733 -6.50209,10.8323168 -1.30945,15.0902878 l -0.0226,0.02258 33.35486,27.123688 -101.663026,0.108368 h -0.13546 c -8.403061,0.009 -16.481016,5.522269 -18.079448,12.489449 -1.643587,7.098125 4.063812,12.986137 12.801007,13.017744 l -0.01355,0.03161 51.529137,-0.09934 -91.9505199,70.57938 c -0.117399,0.0858 -0.2438287,0.1761 -0.3521971,0.26189 -8.67398087,6.64208 -11.4780111,17.68662 -6.0144417,24.67637 5.5448457,7.10716 17.3344157,7.12071 26.0987037,0.0406 l 50.183563,-41.07159 c 0,0 -0.731487,5.54484 -0.672787,8.87265 z m 128.953785,18.56711 c -10.34014,10.5343 -24.81635,16.50811 -40.48008,16.53981 -15.68632,0.027 -30.16252,-5.89262 -40.50266,-16.40886 -5.05268,-5.12492 -8.76429,-11.02197 -11.05357,-17.30281 -2.24413,-6.17248 -3.11559,-12.72425 -2.53763,-19.33472 0.54636,-6.46146 2.4699,-12.62491 5.54034,-18.20136 3.01625,-5.48163 7.17036,-10.434966 12.2998,-14.625207 10.05116,-8.190839 22.84765,-12.62491 36.23114,-12.643026 13.39703,-0.01801 26.1845,4.375426 36.24469,12.539173 5.1204,4.17218 9.27,9.107454 12.28626,14.580054 3.08398,5.571936 4.99397,11.712806 5.5629,18.192336 0.56894,6.60143 -0.30253,13.14417 -2.54665,19.32116 -2.2938,6.29891 -5.99187,12.19595 -11.04454,17.34345 z"
       fill="#ea7600"
       id="path6"
       inkscape:label="path6"
       style="fill:#ffffff" />
  </g>
</svg>
